<?xml version="1.0" encoding="UTF-8" standalone="no"?>
<!DOCTYPE svg PUBLIC "-//W3C//DTD SVG 1.1//EN"
 "http://www.w3.org/Graphics/SVG/1.1/DTD/svg11.dtd">
<!-- Generated by graphviz version 2.49.3 (0)
 -->
<!-- Title: RenderGraph Pages: 1 -->
<svg width="1172pt" height="748pt"
 viewBox="0.00 0.00 1172.00 748.49" xmlns="http://www.w3.org/2000/svg" xmlns:xlink="http://www.w3.org/1999/xlink">
<g id="graph0" class="graph" transform="scale(1 1) rotate(0) translate(4 744.49)">
<title>RenderGraph</title>
<polygon fill="white" stroke="transparent" points="-4,4 -4,-744.49 1168,-744.49 1168,4 -4,4"/>
<!-- 217387000745622193859907832607671243945 -->
<g id="node1" class="node">
<title>217387000745622193859907832607671243945</title>
<text text-anchor="start" x="430.5" y="-209.29" font-family="Helvetica,sans-Serif" font-size="14.00">lights</text>
<text text-anchor="start" x="422.5" y="-198.49" font-family="Helvetica,sans-Serif" font-size="10.00" fill="red">LightsNode</text>
<path fill="none" stroke="black" d="M428.33,-190.49C428.33,-190.49 471.67,-190.49 471.67,-190.49 477.33,-190.49 483,-196.16 483,-201.82 483,-201.82 483,-213.16 483,-213.16 483,-218.82 477.33,-224.49 471.67,-224.49 471.67,-224.49 428.33,-224.49 428.33,-224.49 422.67,-224.49 417,-218.82 417,-213.16 417,-213.16 417,-201.82 417,-201.82 417,-196.16 422.67,-190.49 428.33,-190.49"/>
</g>
<!-- 328709433614757965743095766493483320203 -->
<g id="node7" class="node">
<title>328709433614757965743095766493483320203</title>
<text text-anchor="start" x="727" y="-299.29" font-family="Helvetica,sans-Serif" font-size="14.00">main_pass</text>
<text text-anchor="start" x="709" y="-288.49" font-family="Helvetica,sans-Serif" font-size="10.00" fill="red">PassNode&lt;MainPass&gt;</text>
<polygon fill="none" stroke="black" points="665.5,-260.49 665.5,-281.49 851.5,-281.49 851.5,-260.49 665.5,-260.49"/>
<text text-anchor="start" x="668.5" y="-267.29" font-family="Helvetica,sans-Serif" font-size="14.00">color_attachment: Texture</text>
<text text-anchor="start" x="855.5" y="-267.29" font-family="Helvetica,sans-Serif" font-size="14.00"> </text>
<polygon fill="none" stroke="black" points="665.5,-237.49 665.5,-258.49 851.5,-258.49 851.5,-237.49 665.5,-237.49"/>
<text text-anchor="start" x="708.5" y="-244.29" font-family="Helvetica,sans-Serif" font-size="14.00">depth: Texture</text>
<text text-anchor="start" x="855.5" y="-244.29" font-family="Helvetica,sans-Serif" font-size="14.00"> </text>
<path fill="none" stroke="black" d="M674,-234.49C674,-234.49 853,-234.49 853,-234.49 859,-234.49 865,-240.49 865,-246.49 865,-246.49 865,-302.49 865,-302.49 865,-308.49 859,-314.49 853,-314.49 853,-314.49 674,-314.49 674,-314.49 668,-314.49 662,-308.49 662,-302.49 662,-302.49 662,-246.49 662,-246.49 662,-240.49 668,-234.49 674,-234.49"/>
</g>
<!-- 217387000745622193859907832607671243945&#45;&gt;328709433614757965743095766493483320203 -->
<g id="edge22" class="edge">
<title>217387000745622193859907832607671243945:e&#45;&gt;328709433614757965743095766493483320203:w</title>
<path fill="none" stroke="black" d="M481,-207.49C527.83,-207.49 540.01,-216.75 582,-237.49 619.32,-255.92 619.44,-291.07 654.28,-296.72"/>
<polygon fill="black" stroke="black" points="654.26,-300.23 664.5,-297.49 654.79,-293.25 654.26,-300.23"/>
</g>
<!-- 68999804268599666255813810025591124253 -->
<g id="node2" class="node">
<title>68999804268599666255813810025591124253</title>
<text text-anchor="start" x="411.5" y="-149.29" font-family="Helvetica,sans-Serif" font-size="14.00">camera_3d</text>
<text text-anchor="start" x="418" y="-138.49" font-family="Helvetica,sans-Serif" font-size="10.00" fill="red">CameraNode</text>
<path fill="none" stroke="black" d="M417.33,-130.49C417.33,-130.49 482.67,-130.49 482.67,-130.49 488.33,-130.49 494,-136.16 494,-141.82 494,-141.82 494,-153.16 494,-153.16 494,-158.82 488.33,-164.49 482.67,-164.49 482.67,-164.49 417.33,-164.49 417.33,-164.49 411.67,-164.49 406,-158.82 406,-153.16 406,-153.16 406,-141.82 406,-141.82 406,-136.16 411.67,-130.49 417.33,-130.49"/>
</g>
<!-- 68999804268599666255813810025591124253&#45;&gt;328709433614757965743095766493483320203 -->
<g id="edge14" class="edge">
<title>68999804268599666255813810025591124253:e&#45;&gt;328709433614757965743095766493483320203:w</title>
<path fill="none" stroke="black" d="M492,-147.49C534.16,-147.49 548.31,-152.14 582,-177.49 630.78,-214.2 603.35,-288.44 654.42,-296.73"/>
<polygon fill="black" stroke="black" points="654.27,-300.23 664.5,-297.49 654.79,-293.25 654.27,-300.23"/>
</g>
<!-- 159591737604696932552842506597469330809 -->
<g id="node3" class="node">
<title>159591737604696932552842506597469330809</title>
<text text-anchor="start" x="727.5" y="-359.29" font-family="Helvetica,sans-Serif" font-size="14.00">camera_ui</text>
<text text-anchor="start" x="731.5" y="-348.49" font-family="Helvetica,sans-Serif" font-size="10.00" fill="red">CameraNode</text>
<path fill="none" stroke="black" d="M733.83,-340.49C733.83,-340.49 793.17,-340.49 793.17,-340.49 798.83,-340.49 804.5,-346.16 804.5,-351.82 804.5,-351.82 804.5,-363.16 804.5,-363.16 804.5,-368.82 798.83,-374.49 793.17,-374.49 793.17,-374.49 733.83,-374.49 733.83,-374.49 728.17,-374.49 722.5,-368.82 722.5,-363.16 722.5,-363.16 722.5,-351.82 722.5,-351.82 722.5,-346.16 728.17,-340.49 733.83,-340.49"/>
</g>
<!-- 332485285705615269546050443949482903421 -->
<g id="node8" class="node">
<title>332485285705615269546050443949482903421</title>
<text text-anchor="start" x="1029" y="-299.29" font-family="Helvetica,sans-Serif" font-size="14.00">ui_pass</text>
<text text-anchor="start" x="1010" y="-288.49" font-family="Helvetica,sans-Serif" font-size="10.00" fill="red">PassNode&lt;Node&gt;</text>
<polygon fill="none" stroke="black" points="956.5,-260.49 956.5,-281.49 1142.5,-281.49 1142.5,-260.49 956.5,-260.49"/>
<text text-anchor="start" x="959.5" y="-267.29" font-family="Helvetica,sans-Serif" font-size="14.00">color_attachment: Texture</text>
<text text-anchor="start" x="1146.5" y="-267.29" font-family="Helvetica,sans-Serif" font-size="14.00"> </text>
<polygon fill="none" stroke="black" points="956.5,-237.49 956.5,-258.49 1142.5,-258.49 1142.5,-237.49 956.5,-237.49"/>
<text text-anchor="start" x="999.5" y="-244.29" font-family="Helvetica,sans-Serif" font-size="14.00">depth: Texture</text>
<text text-anchor="start" x="1146.5" y="-244.29" font-family="Helvetica,sans-Serif" font-size="14.00"> </text>
<path fill="none" stroke="black" d="M965,-234.49C965,-234.49 1144,-234.49 1144,-234.49 1150,-234.49 1156,-240.49 1156,-246.49 1156,-246.49 1156,-302.49 1156,-302.49 1156,-308.49 1150,-314.49 1144,-314.49 1144,-314.49 965,-314.49 965,-314.49 959,-314.49 953,-308.49 953,-302.49 953,-302.49 953,-246.49 953,-246.49 953,-240.49 959,-234.49 965,-234.49"/>
</g>
<!-- 159591737604696932552842506597469330809&#45;&gt;332485285705615269546050443949482903421 -->
<g id="edge10" class="edge">
<title>159591737604696932552842506597469330809:e&#45;&gt;332485285705615269546050443949482903421:w</title>
<path fill="none" stroke="black" d="M802.5,-357.49C871.98,-357.49 881.63,-303.21 945.26,-297.91"/>
<polygon fill="black" stroke="black" points="945.65,-301.39 955.5,-297.49 945.37,-294.4 945.65,-301.39"/>
</g>
<!-- 165875834537907846481065961201465068867 -->
<g id="node4" class="node">
<title>165875834537907846481065961201465068867</title>
<text text-anchor="start" x="411.5" y="-669.29" font-family="Helvetica,sans-Serif" font-size="14.00">camera_2d</text>
<text text-anchor="start" x="418" y="-658.49" font-family="Helvetica,sans-Serif" font-size="10.00" fill="red">CameraNode</text>
<path fill="none" stroke="black" d="M417.33,-650.49C417.33,-650.49 482.67,-650.49 482.67,-650.49 488.33,-650.49 494,-656.16 494,-661.82 494,-661.82 494,-673.16 494,-673.16 494,-678.82 488.33,-684.49 482.67,-684.49 482.67,-684.49 417.33,-684.49 417.33,-684.49 411.67,-684.49 406,-678.82 406,-673.16 406,-673.16 406,-661.82 406,-661.82 406,-656.16 411.67,-650.49 417.33,-650.49"/>
</g>
<!-- 165875834537907846481065961201465068867&#45;&gt;328709433614757965743095766493483320203 -->
<g id="edge15" class="edge">
<title>165875834537907846481065961201465068867:e&#45;&gt;328709433614757965743095766493483320203:w</title>
<path fill="none" stroke="black" d="M492,-667.49C534.92,-667.49 553.83,-664.87 582,-632.49 680.27,-519.5 519.05,-307.71 654.25,-297.85"/>
<polygon fill="black" stroke="black" points="654.63,-301.34 664.5,-297.49 654.38,-294.34 654.63,-301.34"/>
</g>
<!-- 192857148959187555108501079901132252936 -->
<g id="node5" class="node">
<title>192857148959187555108501079901132252936</title>
<text text-anchor="start" x="32.5" y="-462.29" font-family="Helvetica,sans-Serif" font-size="14.00">background_pass_camera</text>
<text text-anchor="start" x="91" y="-451.49" font-family="Helvetica,sans-Serif" font-size="10.00" fill="red">CameraNode</text>
<path fill="none" stroke="black" d="M38.33,-443.49C38.33,-443.49 207.67,-443.49 207.67,-443.49 213.33,-443.49 219,-449.16 219,-454.82 219,-454.82 219,-466.16 219,-466.16 219,-471.82 213.33,-477.49 207.67,-477.49 207.67,-477.49 38.33,-477.49 38.33,-477.49 32.67,-477.49 27,-471.82 27,-466.16 27,-466.16 27,-454.82 27,-454.82 27,-449.16 32.67,-443.49 38.33,-443.49"/>
</g>
<!-- 17576759734304349120006054953695589681 -->
<g id="node6" class="node">
<title>17576759734304349120006054953695589681</title>
<text text-anchor="start" x="389.5" y="-473.29" font-family="Helvetica,sans-Serif" font-size="14.00">background_pass</text>
<text text-anchor="start" x="378.5" y="-462.49" font-family="Helvetica,sans-Serif" font-size="10.00" fill="red">PassNode&lt;BackgroundPass&gt;</text>
<polygon fill="none" stroke="black" points="352,-434.49 352,-455.49 538,-455.49 538,-434.49 352,-434.49"/>
<text text-anchor="start" x="355" y="-441.29" font-family="Helvetica,sans-Serif" font-size="14.00">color_attachment: Texture</text>
<text text-anchor="start" x="542" y="-441.29" font-family="Helvetica,sans-Serif" font-size="14.00"> </text>
<polygon fill="none" stroke="black" points="352,-411.49 352,-432.49 538,-432.49 538,-411.49 352,-411.49"/>
<text text-anchor="start" x="395" y="-418.29" font-family="Helvetica,sans-Serif" font-size="14.00">depth: Texture</text>
<text text-anchor="start" x="542" y="-418.29" font-family="Helvetica,sans-Serif" font-size="14.00"> </text>
<path fill="none" stroke="black" d="M360.5,-408.49C360.5,-408.49 539.5,-408.49 539.5,-408.49 545.5,-408.49 551.5,-414.49 551.5,-420.49 551.5,-420.49 551.5,-476.49 551.5,-476.49 551.5,-482.49 545.5,-488.49 539.5,-488.49 539.5,-488.49 360.5,-488.49 360.5,-488.49 354.5,-488.49 348.5,-482.49 348.5,-476.49 348.5,-476.49 348.5,-420.49 348.5,-420.49 348.5,-414.49 354.5,-408.49 360.5,-408.49"/>
</g>
<!-- 192857148959187555108501079901132252936&#45;&gt;17576759734304349120006054953695589681 -->
<g id="edge6" class="edge">
<title>192857148959187555108501079901132252936:e&#45;&gt;17576759734304349120006054953695589681:w</title>
<path fill="none" stroke="black" d="M217,-460.49C273.25,-460.49 289.39,-470.24 340.94,-471.38"/>
<polygon fill="black" stroke="black" points="340.96,-474.88 351,-471.49 341.04,-467.88 340.96,-474.88"/>
</g>
<!-- 17576759734304349120006054953695589681&#45;&gt;328709433614757965743095766493483320203 -->
<g id="edge23" class="edge">
<title>17576759734304349120006054953695589681:e&#45;&gt;328709433614757965743095766493483320203:w</title>
<path fill="none" stroke="black" d="M550,-471.49C638.96,-471.49 577.2,-310.82 654.38,-298.27"/>
<polygon fill="black" stroke="black" points="654.8,-301.74 664.5,-297.49 654.26,-294.76 654.8,-301.74"/>
</g>
<!-- 328709433614757965743095766493483320203&#45;&gt;332485285705615269546050443949482903421 -->
<g id="edge9" class="edge">
<title>328709433614757965743095766493483320203:e&#45;&gt;332485285705615269546050443949482903421:w</title>
<path fill="none" stroke="black" d="M863.5,-297.49C900.72,-297.49 912.53,-297.49 945.18,-297.49"/>
<polygon fill="black" stroke="black" points="945.5,-300.99 955.5,-297.49 945.5,-293.99 945.5,-300.99"/>
</g>
<!-- 118417353784739346975225281464698587854 -->
<g id="node9" class="node">
<title>118417353784739346975225281464698587854</title>
<text text-anchor="start" x="387" y="-571.29" font-family="Helvetica,sans-Serif" font-size="14.00">standard_material</text>
<text text-anchor="start" x="331" y="-560.49" font-family="Helvetica,sans-Serif" font-size="10.00" fill="red">AssetRenderResourcesNode&lt;StandardMaterial&gt;</text>
<path fill="none" stroke="black" d="M337.33,-552.49C337.33,-552.49 562.67,-552.49 562.67,-552.49 568.33,-552.49 574,-558.16 574,-563.82 574,-563.82 574,-575.16 574,-575.16 574,-580.82 568.33,-586.49 562.67,-586.49 562.67,-586.49 337.33,-586.49 337.33,-586.49 331.67,-586.49 326,-580.82 326,-575.16 326,-575.16 326,-563.82 326,-563.82 326,-558.16 331.67,-552.49 337.33,-552.49"/>
</g>
<!-- 118417353784739346975225281464698587854&#45;&gt;328709433614757965743095766493483320203 -->
<g id="edge20" class="edge">
<title>118417353784739346975225281464698587854:e&#45;&gt;328709433614757965743095766493483320203:w</title>
<path fill="none" stroke="black" d="M572,-569.49C696.07,-569.49 545.8,-312.68 654.34,-298.13"/>
<polygon fill="black" stroke="black" points="654.74,-301.61 664.5,-297.49 654.3,-294.63 654.74,-301.61"/>
</g>
<!-- 199824325523976236000974811918846637561 -->
<g id="node10" class="node">
<title>199824325523976236000974811918846637561</title>
<text text-anchor="start" x="74" y="-390.29" font-family="Helvetica,sans-Serif" font-size="14.00">color_material</text>
<text text-anchor="start" x="13" y="-379.49" font-family="Helvetica,sans-Serif" font-size="10.00" fill="red">AssetRenderResourcesNode&lt;ColorMaterial&gt;</text>
<path fill="none" stroke="black" d="M19.33,-371.49C19.33,-371.49 226.67,-371.49 226.67,-371.49 232.33,-371.49 238,-377.16 238,-382.82 238,-382.82 238,-394.16 238,-394.16 238,-399.82 232.33,-405.49 226.67,-405.49 226.67,-405.49 19.33,-405.49 19.33,-405.49 13.67,-405.49 8,-399.82 8,-394.16 8,-394.16 8,-382.82 8,-382.82 8,-377.16 13.67,-371.49 19.33,-371.49"/>
</g>
<!-- 199824325523976236000974811918846637561&#45;&gt;17576759734304349120006054953695589681 -->
<g id="edge5" class="edge">
<title>199824325523976236000974811918846637561:e&#45;&gt;17576759734304349120006054953695589681:w</title>
<path fill="none" stroke="black" d="M236,-388.49C295.46,-388.49 288.98,-462.35 340.98,-470.72"/>
<polygon fill="black" stroke="black" points="340.76,-474.22 351,-471.49 341.3,-467.24 340.76,-474.22"/>
</g>
<!-- 199824325523976236000974811918846637561&#45;&gt;328709433614757965743095766493483320203 -->
<g id="edge18" class="edge">
<title>199824325523976236000974811918846637561:e&#45;&gt;328709433614757965743095766493483320203:w</title>
<path fill="none" stroke="black" d="M236,-388.49C390.39,-388.49 437.45,-411.75 582,-357.49 620.96,-342.86 619.71,-304.53 654.31,-298.34"/>
<polygon fill="black" stroke="black" points="654.83,-301.81 664.5,-297.49 654.24,-294.83 654.83,-301.81"/>
</g>
<!-- 79796333330810333445468436042668249892 -->
<g id="node11" class="node">
<title>79796333330810333445468436042668249892</title>
<text text-anchor="start" x="80.5" y="-661.29" font-family="Helvetica,sans-Serif" font-size="14.00">sprite_sheet</text>
<text text-anchor="start" x="15.5" y="-650.49" font-family="Helvetica,sans-Serif" font-size="10.00" fill="red">AssetRenderResourcesNode&lt;TextureAtlas&gt;</text>
<path fill="none" stroke="black" d="M21.33,-642.49C21.33,-642.49 224.67,-642.49 224.67,-642.49 230.33,-642.49 236,-648.16 236,-653.82 236,-653.82 236,-665.16 236,-665.16 236,-670.82 230.33,-676.49 224.67,-676.49 224.67,-676.49 21.33,-676.49 21.33,-676.49 15.67,-676.49 10,-670.82 10,-665.16 10,-665.16 10,-653.82 10,-653.82 10,-648.16 15.67,-642.49 21.33,-642.49"/>
</g>
<!-- 126884611366104625277572487702265734231 -->
<g id="node12" class="node">
<title>126884611366104625277572487702265734231</title>
<text text-anchor="start" x="103" y="-601.29" font-family="Helvetica,sans-Serif" font-size="14.00">sprite</text>
<text text-anchor="start" x="45" y="-590.49" font-family="Helvetica,sans-Serif" font-size="10.00" fill="red">RenderResourcesNode&lt;Sprite&gt;</text>
<path fill="none" stroke="black" d="M51.33,-582.49C51.33,-582.49 194.67,-582.49 194.67,-582.49 200.33,-582.49 206,-588.16 206,-593.82 206,-593.82 206,-605.16 206,-605.16 206,-610.82 200.33,-616.49 194.67,-616.49 194.67,-616.49 51.33,-616.49 51.33,-616.49 45.67,-616.49 40,-610.82 40,-605.16 40,-605.16 40,-593.82 40,-593.82 40,-588.16 45.67,-582.49 51.33,-582.49"/>
</g>
<!-- 126884611366104625277572487702265734231&#45;&gt;17576759734304349120006054953695589681 -->
<g id="edge4" class="edge">
<title>126884611366104625277572487702265734231:e&#45;&gt;17576759734304349120006054953695589681:w</title>
<path fill="none" stroke="black" d="M204,-599.49C287.08,-599.49 266.33,-481.77 340.89,-472.12"/>
<polygon fill="black" stroke="black" points="341.24,-475.6 351,-471.49 340.8,-468.62 341.24,-475.6"/>
</g>
<!-- 126884611366104625277572487702265734231&#45;&gt;328709433614757965743095766493483320203 -->
<g id="edge19" class="edge">
<title>126884611366104625277572487702265734231:e&#45;&gt;328709433614757965743095766493483320203:w</title>
<path fill="none" stroke="black" d="M204,-599.49C288,-599.49 515.44,-650.73 582,-599.49 689.46,-516.77 533.66,-308.43 654.48,-297.9"/>
<polygon fill="black" stroke="black" points="654.65,-301.4 664.5,-297.49 654.36,-294.41 654.65,-301.4"/>
</g>
<!-- 10716211800579447381450219320219767923 -->
<g id="node13" class="node">
<title>10716211800579447381450219320219767923</title>
<text text-anchor="start" x="57" y="-721.29" font-family="Helvetica,sans-Serif" font-size="14.00">sprite_sheet_sprite</text>
<text text-anchor="start" x="14.5" y="-710.49" font-family="Helvetica,sans-Serif" font-size="10.00" fill="red">RenderResourcesNode&lt;TextureAtlasSprite&gt;</text>
<path fill="none" stroke="black" d="M20.33,-702.49C20.33,-702.49 225.67,-702.49 225.67,-702.49 231.33,-702.49 237,-708.16 237,-713.82 237,-713.82 237,-725.16 237,-725.16 237,-730.82 231.33,-736.49 225.67,-736.49 225.67,-736.49 20.33,-736.49 20.33,-736.49 14.67,-736.49 9,-730.82 9,-725.16 9,-725.16 9,-713.82 9,-713.82 9,-708.16 14.67,-702.49 20.33,-702.49"/>
</g>
<!-- 27682420580342516006417870700577446138 -->
<g id="node14" class="node">
<title>27682420580342516006417870700577446138</title>
<text text-anchor="start" x="88.5" y="-522.29" font-family="Helvetica,sans-Serif" font-size="14.00">transform</text>
<text text-anchor="start" x="19" y="-511.49" font-family="Helvetica,sans-Serif" font-size="10.00" fill="red">RenderResourcesNode&lt;GlobalTransform&gt;</text>
<path fill="none" stroke="black" d="M25.33,-503.49C25.33,-503.49 220.67,-503.49 220.67,-503.49 226.33,-503.49 232,-509.16 232,-514.82 232,-514.82 232,-526.16 232,-526.16 232,-531.82 226.33,-537.49 220.67,-537.49 220.67,-537.49 25.33,-537.49 25.33,-537.49 19.67,-537.49 14,-531.82 14,-526.16 14,-526.16 14,-514.82 14,-514.82 14,-509.16 19.67,-503.49 25.33,-503.49"/>
</g>
<!-- 27682420580342516006417870700577446138&#45;&gt;17576759734304349120006054953695589681 -->
<g id="edge3" class="edge">
<title>27682420580342516006417870700577446138:e&#45;&gt;17576759734304349120006054953695589681:w</title>
<path fill="none" stroke="black" d="M230,-520.49C284.39,-520.49 292.15,-477.42 340.72,-472.04"/>
<polygon fill="black" stroke="black" points="341.2,-475.52 351,-471.49 340.83,-468.53 341.2,-475.52"/>
</g>
<!-- 27682420580342516006417870700577446138&#45;&gt;328709433614757965743095766493483320203 -->
<g id="edge21" class="edge">
<title>27682420580342516006417870700577446138:e&#45;&gt;328709433614757965743095766493483320203:w</title>
<path fill="none" stroke="black" d="M230,-520.49C308.34,-520.49 518.25,-547.02 582,-501.49 658.63,-446.76 573.5,-308.29 654.39,-298.09"/>
<polygon fill="black" stroke="black" points="654.72,-301.57 664.5,-297.49 654.31,-294.58 654.72,-301.57"/>
</g>
<!-- 184006492743458578866020570777137395507 -->
<g id="node15" class="node">
<title>184006492743458578866020570777137395507</title>
<text text-anchor="start" x="746" y="-419.29" font-family="Helvetica,sans-Serif" font-size="14.00">node</text>
<text text-anchor="start" x="687" y="-408.49" font-family="Helvetica,sans-Serif" font-size="10.00" fill="red">RenderResourcesNode&lt;Node&gt;</text>
<path fill="none" stroke="black" d="M692.83,-400.49C692.83,-400.49 834.17,-400.49 834.17,-400.49 839.83,-400.49 845.5,-406.16 845.5,-411.82 845.5,-411.82 845.5,-423.16 845.5,-423.16 845.5,-428.82 839.83,-434.49 834.17,-434.49 834.17,-434.49 692.83,-434.49 692.83,-434.49 687.17,-434.49 681.5,-428.82 681.5,-423.16 681.5,-423.16 681.5,-411.82 681.5,-411.82 681.5,-406.16 687.17,-400.49 692.83,-400.49"/>
</g>
<!-- 184006492743458578866020570777137395507&#45;&gt;332485285705615269546050443949482903421 -->
<g id="edge11" class="edge">
<title>184006492743458578866020570777137395507:e&#45;&gt;332485285705615269546050443949482903421:w</title>
<path fill="none" stroke="black" d="M843.5,-417.49C912.75,-417.49 885.71,-309.37 945.18,-298.39"/>
<polygon fill="black" stroke="black" points="945.84,-301.84 955.5,-297.49 945.23,-294.87 945.84,-301.84"/>
</g>
<!-- 155665140949117339218441804419350693247 -->
<g id="node16" class="node">
<title>155665140949117339218441804419350693247</title>
<text text-anchor="start" x="398" y="-329.29" font-family="Helvetica,sans-Serif" font-size="14.00">shared_buffers</text>
<text text-anchor="start" x="403" y="-318.49" font-family="Helvetica,sans-Serif" font-size="10.00" fill="red">SharedBuffersNode</text>
<path fill="none" stroke="black" d="M404.33,-310.49C404.33,-310.49 495.67,-310.49 495.67,-310.49 501.33,-310.49 507,-316.16 507,-321.82 507,-321.82 507,-333.16 507,-333.16 507,-338.82 501.33,-344.49 495.67,-344.49 495.67,-344.49 404.33,-344.49 404.33,-344.49 398.67,-344.49 393,-338.82 393,-333.16 393,-333.16 393,-321.82 393,-321.82 393,-316.16 398.67,-310.49 404.33,-310.49"/>
</g>
<!-- 155665140949117339218441804419350693247&#45;&gt;328709433614757965743095766493483320203 -->
<g id="edge13" class="edge">
<title>155665140949117339218441804419350693247:e&#45;&gt;328709433614757965743095766493483320203:w</title>
<path fill="none" stroke="black" d="M505,-327.49C573.61,-327.49 590.74,-300.35 654.33,-297.7"/>
<polygon fill="black" stroke="black" points="654.57,-301.19 664.5,-297.49 654.43,-294.2 654.57,-301.19"/>
</g>
<!-- 111363648157373735594376367351257369797 -->
<g id="node17" class="node">
<title>111363648157373735594376367351257369797</title>
<text text-anchor="start" x="405" y="-269.29" font-family="Helvetica,sans-Serif" font-size="14.00">texture_copy</text>
<text text-anchor="start" x="406.5" y="-258.49" font-family="Helvetica,sans-Serif" font-size="10.00" fill="red">TextureCopyNode</text>
<path fill="none" stroke="black" d="M411.33,-250.49C411.33,-250.49 488.67,-250.49 488.67,-250.49 494.33,-250.49 500,-256.16 500,-261.82 500,-261.82 500,-273.16 500,-273.16 500,-278.82 494.33,-284.49 488.67,-284.49 488.67,-284.49 411.33,-284.49 411.33,-284.49 405.67,-284.49 400,-278.82 400,-273.16 400,-273.16 400,-261.82 400,-261.82 400,-256.16 405.67,-250.49 411.33,-250.49"/>
</g>
<!-- 111363648157373735594376367351257369797&#45;&gt;328709433614757965743095766493483320203 -->
<g id="edge12" class="edge">
<title>111363648157373735594376367351257369797:e&#45;&gt;328709433614757965743095766493483320203:w</title>
<path fill="none" stroke="black" d="M498,-267.49C569.67,-267.49 587.67,-294.74 654.3,-297.3"/>
<polygon fill="black" stroke="black" points="654.44,-300.8 664.5,-297.49 654.57,-293.8 654.44,-300.8"/>
</g>
<!-- 119862002735295315510001205493164563962 -->
<g id="node18" class="node">
<title>119862002735295315510001205493164563962</title>
<text text-anchor="start" x="86" y="-149.29" font-family="Helvetica,sans-Serif" font-size="14.00">swapchain</text>
<text text-anchor="start" x="63.5" y="-138.49" font-family="Helvetica,sans-Serif" font-size="10.00" fill="red">WindowSwapChainNode</text>
<text text-anchor="start" x="62" y="-117.29" font-family="Helvetica,sans-Serif" font-size="14.00"> </text>
<polygon fill="none" stroke="black" points="71,-110.49 71,-131.49 186,-131.49 186,-110.49 71,-110.49"/>
<text text-anchor="start" x="74" y="-117.29" font-family="Helvetica,sans-Serif" font-size="14.00">texture: Texture</text>
<path fill="none" stroke="black" d="M69,-107.99C69,-107.99 177,-107.99 177,-107.99 183,-107.99 189,-113.99 189,-119.99 189,-119.99 189,-152.99 189,-152.99 189,-158.99 183,-164.99 177,-164.99 177,-164.99 69,-164.99 69,-164.99 63,-164.99 57,-158.99 57,-152.99 57,-152.99 57,-119.99 57,-119.99 57,-113.99 63,-107.99 69,-107.99"/>
</g>
<!-- 119862002735295315510001205493164563962&#45;&gt;17576759734304349120006054953695589681 -->
<g id="edge1" class="edge">
<title>119862002735295315510001205493164563962:e&#45;&gt;17576759734304349120006054953695589681:w</title>
<path fill="none" stroke="blue" d="M187,-120.49C344.77,-120.49 196.58,-430.1 340.6,-444.01"/>
<polygon fill="blue" stroke="blue" points="340.85,-447.52 351,-444.49 341.17,-440.53 340.85,-447.52"/>
</g>
<!-- 119862002735295315510001205493164563962&#45;&gt;328709433614757965743095766493483320203 -->
<g id="edge16" class="edge">
<title>119862002735295315510001205493164563962:e&#45;&gt;328709433614757965743095766493483320203:w</title>
<path fill="none" stroke="blue" d="M187,-120.49C362.56,-120.49 431.25,-27.51 582,-117.49 645.23,-155.23 592.69,-260.02 654.52,-269.76"/>
<polygon fill="blue" stroke="blue" points="654.27,-273.25 664.5,-270.49 654.78,-266.27 654.27,-273.25"/>
</g>
<!-- 119862002735295315510001205493164563962&#45;&gt;332485285705615269546050443949482903421 -->
<g id="edge7" class="edge">
<title>119862002735295315510001205493164563962:e&#45;&gt;332485285705615269546050443949482903421:w</title>
<path fill="none" stroke="blue" d="M187,-120.49C248.71,-120.49 257.17,-84.86 318,-74.49 433.66,-54.77 467.86,-47.3 582,-74.49 722.95,-108.07 745.97,-151.79 873,-221.49 907.17,-240.24 912.17,-265.65 945.35,-269.88"/>
<polygon fill="blue" stroke="blue" points="945.31,-273.39 955.5,-270.49 945.73,-266.4 945.31,-273.39"/>
</g>
<!-- 115098822278846486709402334596949291536 -->
<g id="node19" class="node">
<title>115098822278846486709402334596949291536</title>
<text text-anchor="start" x="34" y="-66.29" font-family="Helvetica,sans-Serif" font-size="14.00">main_pass_depth_texture</text>
<text text-anchor="start" x="72.5" y="-55.49" font-family="Helvetica,sans-Serif" font-size="10.00" fill="red">WindowTextureNode</text>
<text text-anchor="start" x="47.5" y="-34.29" font-family="Helvetica,sans-Serif" font-size="14.00"> </text>
<polygon fill="none" stroke="black" points="71,-27.49 71,-48.49 215,-48.49 215,-27.49 71,-27.49"/>
<text text-anchor="start" x="88.5" y="-34.29" font-family="Helvetica,sans-Serif" font-size="14.00">texture: Texture</text>
<path fill="none" stroke="black" d="M40,-24.99C40,-24.99 206,-24.99 206,-24.99 212,-24.99 218,-30.99 218,-36.99 218,-36.99 218,-69.99 218,-69.99 218,-75.99 212,-81.99 206,-81.99 206,-81.99 40,-81.99 40,-81.99 34,-81.99 28,-75.99 28,-69.99 28,-69.99 28,-36.99 28,-36.99 28,-30.99 34,-24.99 40,-24.99"/>
</g>
<!-- 115098822278846486709402334596949291536&#45;&gt;17576759734304349120006054953695589681 -->
<g id="edge2" class="edge">
<title>115098822278846486709402334596949291536:e&#45;&gt;17576759734304349120006054953695589681:w</title>
<path fill="none" stroke="blue" d="M216,-37.49C393.37,-37.49 178.8,-406.64 340.86,-421.06"/>
<polygon fill="blue" stroke="blue" points="340.86,-424.56 351,-421.49 341.16,-417.57 340.86,-424.56"/>
</g>
<!-- 115098822278846486709402334596949291536&#45;&gt;328709433614757965743095766493483320203 -->
<g id="edge17" class="edge">
<title>115098822278846486709402334596949291536:e&#45;&gt;328709433614757965743095766493483320203:w</title>
<path fill="none" stroke="blue" d="M216,-37.49C379.5,-37.49 448.3,19.61 582,-74.49 648.67,-121.41 585.27,-236.97 654.37,-246.82"/>
<polygon fill="blue" stroke="blue" points="654.29,-250.32 664.5,-247.49 654.75,-243.34 654.29,-250.32"/>
</g>
<!-- 115098822278846486709402334596949291536&#45;&gt;332485285705615269546050443949482903421 -->
<g id="edge8" class="edge">
<title>115098822278846486709402334596949291536:e&#45;&gt;332485285705615269546050443949482903421:w</title>
<path fill="none" stroke="blue" d="M216,-37.49C509.02,-37.49 632.4,74.76 873,-92.49 934.07,-134.95 882.78,-237.28 945.41,-246.78"/>
<polygon fill="blue" stroke="blue" points="945.28,-250.28 955.5,-247.49 945.77,-243.3 945.28,-250.28"/>
</g>
</g>
</svg>
